<svg width="40" height="41" viewBox="0 0 40 41" fill="none" xmlns="http://www.w3.org/2000/svg">
<g clip-path="url(#clip0_1110_151)">
<rect y="1.59113" width="40" height="10.5495" fill="#4083FF"/>
<rect width="40" height="4.3956" transform="matrix(1 0 0 -1 0 18.2944)" fill="#002578"/>
<rect width="40" height="2.63736" transform="matrix(1 0 0 -1 0 22.69)" fill="#E52207"/>
<path d="M22.4686 20.2724H15.9191V11.4812H22.4686C24.1828 11.4812 26.2927 12.2724 26.2927 15.8768C26.2927 19.5252 24.1828 20.2724 22.4686 20.2724ZM4.27075 38.5142H19.4356V37.2395H15.9191V27.5691H22.029C28.2268 27.5691 34.5565 25.3713 34.5565 15.8768C34.5565 6.42629 28.051 4.22849 21.8532 4.22849H4.27075V5.50321H7.78724V37.2395H4.27075V38.5142Z" fill="black"/>
<mask id="mask0_1110_151" style="mask-type:alpha" maskUnits="userSpaceOnUse" x="4" y="4" width="31" height="35">
<path d="M22.4686 20.2724H15.9191V11.4812H22.4686C24.1828 11.4812 26.2927 12.2724 26.2927 15.8768C26.2927 19.5252 24.1828 20.2724 22.4686 20.2724ZM4.27075 38.5142H19.4356V37.2395H15.9191V27.5691H22.029C28.2268 27.5691 34.5565 25.3713 34.5565 15.8768C34.5565 6.42629 28.051 4.22849 21.8532 4.22849H4.27075V5.50321H7.78724V37.2395H4.27075V38.5142Z" fill="black"/>
</mask>
<g mask="url(#mask0_1110_151)">
<rect y="1.59116" width="40" height="10.5495" fill="#0D2656"/>
<rect width="40" height="4.3956" transform="matrix(1 0 0 -1 0 18.2944)" fill="#00184D"/>
<rect width="40" height="2.63736" transform="matrix(1 0 0 -1 0 22.69)" fill="#860707"/>
</g>
</g>
<defs>
<clipPath id="clip0_1110_151">
<path d="M0 0.0536194H40V40.0536H0V0.0536194Z" fill="white"/>
</clipPath>
</defs>
</svg>
