<svg width="32" height="33" viewBox="0 0 32 33" fill="none" xmlns="http://www.w3.org/2000/svg">
<mask id="mask0_1118_1023" style="mask-type:alpha" maskUnits="userSpaceOnUse" x="0" y="0" width="32" height="33">
<rect width="32" height="32" transform="matrix(-1 0 0 1 32 0.0536194)" fill="#D9D9D9"/>
</mask>
<g mask="url(#mask0_1118_1023)">
<path d="M22.9944 22.3372L20.7897 24.5417L14.1209 17.8738L16.3257 15.6693L22.9944 22.3372Z" fill="#010101"/>
<path d="M23.7936 20.6515L24.5076 21.3653L19.8186 26.0536L19.1047 25.3397L23.7936 20.6515Z" fill="#010101"/>
<path fill-rule="evenodd" clip-rule="evenodd" d="M4.80883 13.1906C4.80883 17.1322 8.00457 20.3275 11.9467 20.3275C15.8889 20.3275 19.0846 17.1322 19.0846 13.1906C19.0846 9.24894 15.8889 6.05362 11.9467 6.05362C8.00457 6.05362 4.80883 9.24894 4.80883 13.1906ZM7.73395 13.1905C7.73395 15.5169 9.62007 17.4027 11.9467 17.4027C14.2734 17.4027 16.1595 15.5169 16.1595 13.1905C16.1595 10.8642 14.2734 8.97829 11.9467 8.97829C9.62007 8.97829 7.73395 10.8642 7.73395 13.1905Z" fill="#010101"/>
</g>
</svg>
