<svg width="329" height="18" viewBox="0 0 329 18" fill="none" xmlns="http://www.w3.org/2000/svg">
<path opacity="0.4" fill-rule="evenodd" clip-rule="evenodd" d="M306.351 2.35559H323.038C323.959 2.35559 324.707 3.10269 324.707 4.02429V10.0316C324.707 10.9532 323.959 11.7003 323.038 11.7003H306.351C305.429 11.7003 304.682 10.9532 304.682 10.0316V4.02429C304.682 3.10269 305.429 2.35559 306.351 2.35559ZM303.681 4.02429C303.681 2.54974 304.876 1.35437 306.351 1.35437H323.038C324.512 1.35437 325.708 2.54973 325.708 4.02429V10.0316C325.708 11.5062 324.512 12.7015 323.038 12.7015H306.351C304.876 12.7015 303.681 11.5062 303.681 10.0316V4.02429ZM328.039 7.02819C328.039 7.90238 327.515 8.69143 326.709 9.03062V5.02575C327.515 5.36494 328.039 6.15399 328.039 7.02819Z" fill="black"/>
<rect x="305.683" y="3.35583" width="18.0219" height="7.34227" rx="1.33496" fill="black"/>
<path fill-rule="evenodd" clip-rule="evenodd" d="M290.996 3.63228C293.214 3.63237 295.348 4.48485 296.956 6.01351C297.077 6.13153 297.27 6.13004 297.39 6.01017L298.547 4.84208C298.607 4.78129 298.641 4.69893 298.641 4.61325C298.64 4.52756 298.605 4.44561 298.544 4.38553C294.324 0.341055 287.666 0.341055 283.446 4.38553C283.385 4.44557 283.35 4.52749 283.35 4.61318C283.349 4.69886 283.383 4.78124 283.443 4.84208L284.601 6.01017C284.72 6.13022 284.914 6.13171 285.035 6.01351C286.643 4.48475 288.777 3.63227 290.996 3.63228ZM290.997 7.43259C292.216 7.43251 293.391 7.8856 294.295 8.7038C294.417 8.81992 294.609 8.81741 294.728 8.69813L295.885 7.53004C295.945 7.46877 295.979 7.38565 295.978 7.29928C295.977 7.21291 295.942 7.1305 295.88 7.07048C293.128 4.51098 288.867 4.51098 286.116 7.07048C286.053 7.1305 286.018 7.21295 286.017 7.29935C286.016 7.38575 286.05 7.46886 286.111 7.53004L287.267 8.69813C287.386 8.81741 287.579 8.81992 287.701 8.7038C288.604 7.88614 289.778 7.43309 290.997 7.43259ZM293.312 9.98928C293.313 10.0759 293.279 10.1594 293.218 10.2201L291.218 12.2382C291.159 12.2975 291.079 12.3309 290.996 12.3309C290.912 12.3309 290.833 12.2975 290.774 12.2382L288.774 10.2201C288.712 10.1593 288.678 10.0758 288.68 9.98921C288.682 9.90259 288.719 9.82057 288.784 9.76252C290.061 8.68232 291.931 8.68232 293.208 9.76252C293.272 9.82062 293.31 9.90266 293.312 9.98928Z" fill="black"/>
<path fill-rule="evenodd" clip-rule="evenodd" d="M277.314 1.68823H276.313C275.76 1.68823 275.311 2.13649 275.311 2.68945V11.3667C275.311 11.9196 275.76 12.3679 276.313 12.3679H277.314C277.867 12.3679 278.315 11.9196 278.315 11.3667V2.68945C278.315 2.13649 277.867 1.68823 277.314 1.68823ZM271.64 4.02433H272.642C273.195 4.02433 273.643 4.47259 273.643 5.02555V11.3666C273.643 11.9196 273.195 12.3678 272.642 12.3678H271.64C271.088 12.3678 270.639 11.9196 270.639 11.3666V5.02555C270.639 4.47259 271.088 4.02433 271.64 4.02433ZM267.97 6.36042H266.968C266.415 6.36042 265.967 6.80868 265.967 7.36164V11.3665C265.967 11.9195 266.415 12.3677 266.968 12.3677H267.97C268.523 12.3677 268.971 11.9195 268.971 11.3665V7.36164C268.971 6.80868 268.523 6.36042 267.97 6.36042ZM263.297 8.36341H262.296C261.743 8.36341 261.295 8.81167 261.295 9.36463V11.3671C261.295 11.92 261.743 12.3683 262.296 12.3683H263.297C263.85 12.3683 264.299 11.92 264.299 11.3671V9.36463C264.299 8.81167 263.85 8.36341 263.297 8.36341Z" fill="black"/>
<path d="M5.38834 13.2593C7.53744 13.2593 9.05687 11.822 9.05687 9.79612C9.05687 7.90026 7.68117 6.51772 5.80584 6.51772C4.64231 6.51772 3.71149 7.05157 3.24608 7.98924H3.12973C3.14342 5.62796 3.99895 4.34124 5.46362 4.34124C6.33969 4.34124 6.98305 4.79296 7.15416 5.56637H8.91998C8.67359 3.97165 7.32526 2.8971 5.4294 2.8971C2.97915 2.8971 1.43919 4.86825 1.43919 8.19457C1.43919 11.5756 3.10235 13.2593 5.38834 13.2593ZM5.37465 11.822C4.25903 11.822 3.42403 10.9528 3.42403 9.80981C3.42403 8.68051 4.23166 7.86604 5.38149 7.86604C6.53133 7.86604 7.32526 8.68051 7.32526 9.84403C7.32526 10.9665 6.48342 11.822 5.37465 11.822ZM11.9523 6.62723C12.6025 6.62723 13.0473 6.17551 13.0473 5.56637C13.0473 4.95723 12.6025 4.5055 11.9523 4.5055C11.3089 4.5055 10.8572 4.95723 10.8572 5.56637C10.8572 6.17551 11.3089 6.62723 11.9523 6.62723ZM11.9523 11.6509C12.6025 11.6509 13.0473 11.1924 13.0473 10.5901C13.0473 9.98092 12.6025 9.5292 11.9523 9.5292C11.3089 9.5292 10.8572 9.98092 10.8572 10.5901C10.8572 11.1924 11.3089 11.6509 11.9523 11.6509ZM17.3937 13.0198H19.1596V3.1435H17.4006L14.8203 4.95723V6.62038L17.2774 4.88194H17.3937V13.0198ZM26.2642 13.0198H27.9547V11.1239H29.2893V9.66608H27.9547V3.1435H25.4634C24.1219 5.18309 22.7188 7.45538 21.439 9.67977V11.1239H26.2642V13.0198ZM23.0747 9.60449C24.0398 7.92764 25.1828 6.10022 26.1957 4.55341H26.2916V9.70715H23.0747V9.60449Z" fill="black"/>
</svg>
